<svg width="54" height="52" viewBox="0 0 54 52" fill="none" xmlns="http://www.w3.org/2000/svg">
<g clip-path="url(#clip0_62_456)">
<path d="M43.7101 52C42.316 52 40.9891 51.3609 39.9739 50.2004C37.9187 47.8519 35.834 45.4593 33.818 43.1456L31.3098 40.2678C30.8805 39.7754 30.4503 39.2835 30.0203 38.7916C28.7839 37.3776 27.5053 35.9153 26.2644 34.4633C26.1205 34.2949 25.9417 34.1228 25.7049 34.1228C25.464 34.1228 25.2933 34.296 25.139 34.4734C19.8837 40.5167 15.502 45.5416 11.3493 50.2866C10.3576 51.4198 9.17568 51.9944 7.83603 51.9944C7.4152 51.9944 6.97448 51.9367 6.52608 51.8229C4.69752 51.3588 3.49289 50.1199 3.04236 48.2399C2.60206 46.4023 3.08002 44.7779 4.42479 43.5426C7.36205 40.8443 10.3759 38.1304 13.2904 35.506C14.2223 34.6668 15.1541 33.8278 16.0851 32.9877C16.2664 32.8242 16.4633 32.7378 16.6546 32.7378C16.8417 32.7378 17.0125 32.8216 17.1482 32.9804C17.5214 33.4166 17.2493 33.8256 16.9552 34.0919C15.0151 35.8494 13.0724 37.6035 11.1296 39.3579L7.99862 42.1843C7.17217 42.9292 6.34587 43.6745 5.52255 44.4229C4.75807 45.118 4.32132 46.0452 4.2929 47.0337C4.2659 47.9764 4.61793 48.8706 5.28435 49.5521C5.92959 50.2117 6.77494 50.5749 7.66491 50.5749C8.66759 50.5749 9.65151 50.1063 10.3643 49.2893L32.9633 23.3821C33.2899 23.0078 33.438 22.9368 33.5971 22.9368C33.7206 22.9368 33.8811 22.9796 34.1338 23.08C34.9232 23.3934 35.695 23.5522 36.4284 23.5522C37.8506 23.5522 39.1553 22.9619 40.3062 21.798C43.1508 18.921 46.0324 15.9853 48.819 13.1462C50.077 11.8647 51.335 10.583 52.5939 9.30234C52.8791 9.01207 53.1273 8.86499 53.3312 8.86499C53.5458 8.86499 53.7653 9.03203 54.0004 9.37523V9.82285C53.9303 9.89906 53.8606 9.97571 53.7907 10.0524C53.5922 10.2706 53.3867 10.4964 53.1786 10.7084C51.8698 12.0414 50.5594 13.3731 49.2492 14.7048C46.7066 17.2887 44.0776 19.9605 41.5029 22.5998C39.9607 24.1806 38.2993 24.949 36.4234 24.949C35.7468 24.949 35.0344 24.8445 34.3059 24.6386C34.2215 24.6146 34.1437 24.603 34.0683 24.603C33.7843 24.603 33.6017 24.7731 33.4742 24.9212C32.6132 25.9229 31.7232 26.9585 30.8228 27.9522C30.7061 28.0811 30.5735 28.2574 30.5847 28.4798C30.5958 28.6988 30.7409 28.8577 30.8959 28.9972C33.376 31.2245 35.8913 33.4972 38.3239 35.6951L39.7057 36.9435C40.4242 37.5923 41.1445 38.2389 41.8647 38.8857C43.5259 40.3767 45.2434 41.9187 46.9063 43.4631C48.1355 44.6049 48.7084 46.2675 48.4385 47.9107C48.169 49.5512 47.1015 50.9301 45.5828 51.5993C44.9791 51.8652 44.349 51.9999 43.7101 52ZM29.4747 29.8078C29.2226 29.8078 29.0452 29.9828 28.891 30.1721C28.318 30.8753 27.7273 31.5513 27.1354 32.1812C26.7542 32.5868 26.7485 32.9227 27.1158 33.341C29.6303 36.2039 32.1761 39.1249 34.6382 41.9498L36.8445 44.4809C37.2435 44.9384 37.6414 45.3964 38.0396 45.8544C39.0597 47.0279 40.1143 48.2415 41.1656 49.4231C41.8298 50.1695 42.7246 50.5807 43.6853 50.5807C44.1273 50.5807 44.5642 50.493 44.9838 50.3201C46.3182 49.77 47.1132 48.4671 47.1108 46.8349C47.091 45.9829 46.6536 45.1134 45.9106 44.4429C44.9592 43.5845 44.0087 42.7253 43.0583 41.8661L41.1315 40.1248L38.6094 37.848C35.7927 35.3059 32.88 32.677 30.0253 30.0806C29.8772 29.9456 29.6957 29.8078 29.4747 29.8078Z" fill="#111111"/>
<path d="M22.0209 29.2796C21.8222 29.2796 21.6012 29.1373 21.3451 28.8444L20.6673 28.0701C19.8214 27.1041 18.9466 26.1054 18.0998 25.1124C17.9715 24.9618 17.7886 24.7891 17.5106 24.7891C17.3906 24.7891 17.2629 24.8215 17.1084 24.8912C15.7919 25.4848 14.4301 25.7857 13.0607 25.7857C10.4996 25.7857 8.05554 24.707 6.17881 22.7482C3.38168 19.8289 1.55099 16.8485 0.582137 13.6366C0.423669 13.1116 0.295332 12.5626 0.171401 12.0317C0.115262 11.7912 0.0591233 11.5508 0 11.3113V8.77328C0.140986 8.61549 0.144824 8.41446 0.146955 8.30571C0.147666 8.27186 0.148377 8.23354 0.152214 8.2156C0.880027 4.81256 3.3642 2.72648 6.79747 2.63551C6.9015 2.63262 7.00554 2.63132 7.10915 2.63132C8.86238 2.63132 10.5981 3.01516 12.4153 3.80467C15.8183 5.28332 18.5845 7.34626 20.637 9.93607C23.0062 12.9255 23.4257 16.3188 21.8836 20.0215C21.6988 20.4651 21.7636 20.7581 22.1147 21.0665C23.0211 21.8626 23.9773 22.7272 25.2152 23.8697C25.3411 23.9859 25.4969 24.1046 25.6994 24.1046C25.9039 24.1046 26.0613 23.9815 26.1616 23.8888C27.2912 22.8469 28.4541 21.8033 29.5423 20.8306C29.792 20.6073 29.8595 20.3679 29.7686 20.0299C29.0288 17.2819 29.6681 14.8565 31.6685 12.8214C35.7379 8.68115 39.8069 4.54067 43.875 0.399022C44.1062 0.163427 44.26 0.0183675 44.4949 0.00245864C44.52 0.000867754 44.5444 0 44.5683 0C44.8431 0 45.0343 0.110205 45.1702 0.346668C45.3191 0.605981 45.3059 0.852423 45.1302 1.09988C45.0519 1.21008 44.9496 1.31262 44.841 1.42124L44.7619 1.50078C43.6868 2.59516 42.6122 3.68998 41.5375 4.78494C38.6575 7.7191 35.6796 10.7534 32.7406 13.7269C30.8417 15.6482 30.3751 17.8646 31.3538 20.3147C31.5137 20.7152 31.4442 21.0103 31.1213 21.3015C30.0066 22.3068 28.8928 23.3128 27.7788 24.3188C26.0643 25.8675 24.3494 27.4162 22.6323 28.9619C22.3951 29.1758 22.195 29.2796 22.0209 29.2796ZM17.8615 23.0163C18.0238 23.0163 18.1994 23.1019 18.5725 23.5286L18.9192 23.9247C19.8148 24.9484 20.7409 26.0067 21.6407 27.0564C21.7629 27.1992 21.9174 27.3451 22.1351 27.3451C22.3364 27.3451 22.4934 27.2145 22.594 27.1161C23.1496 26.5735 23.624 26.1443 24.0869 25.7653C24.2293 25.6488 24.3932 25.4856 24.3976 25.2573C24.4023 25.001 24.1961 24.8189 24.0853 24.721C23.216 23.9532 22.3412 23.1608 21.4951 22.3944C21.1896 22.1175 20.8839 21.8406 20.5779 21.5643C19.9142 20.9651 19.892 20.8388 20.3148 20.0633C21.004 18.7993 21.3543 17.4471 21.3559 16.044C21.3546 13.8282 20.6323 11.9222 19.2094 10.3785C17.1254 8.11769 14.7545 6.38638 12.1628 5.23284C10.3548 4.42829 8.78634 4.05342 7.22682 4.05342C6.87777 4.05342 6.52559 4.07338 6.18051 4.11257C3.81572 4.38158 2.04473 6.00833 1.55867 8.3582C1.28522 9.67994 1.34775 11.0733 1.74954 12.6177C2.66225 16.125 4.56983 19.2374 7.58128 22.1326C9.09049 23.5835 11.0391 24.3827 13.0679 24.3827C14.4701 24.3827 15.8915 24.0003 17.1782 23.2771C17.5033 23.0943 17.7076 23.0163 17.8615 23.0163Z" fill="#111111"/>
<path d="M37.3243 14.6436C37.1576 14.6436 37.0038 14.5733 36.8673 14.4348C36.7219 14.2871 36.6492 14.114 36.6573 13.934C36.666 13.7403 36.7652 13.5416 36.9442 13.3591C38.8664 11.3982 40.7907 9.43943 42.7151 7.48062C44.1163 6.05432 45.5176 4.62802 46.9179 3.20086C47.1223 2.9926 47.3156 2.89136 47.5087 2.89136C47.603 2.89136 47.6993 2.91406 47.8031 2.96092C48.0464 3.07055 48.1833 3.27621 48.2101 3.57225C48.1983 3.88826 48.031 4.08047 47.7592 4.35656C45.5189 6.63297 43.2803 8.91096 41.0417 11.189L39.248 13.0149C39.1149 13.1501 38.9828 13.286 38.8503 13.4218C38.5513 13.7289 38.2422 14.0463 37.9319 14.3495C37.7348 14.542 37.5246 14.6436 37.3243 14.6436Z" fill="#111111"/>
<path d="M40.0585 17.4078C39.9183 17.3979 39.6709 17.3363 39.514 17.0448C39.3803 16.7967 39.3898 16.5577 39.543 16.3137C39.5937 16.2328 39.6732 16.1542 39.7573 16.0707L39.8254 16.0026C43.0752 12.694 46.3258 9.38611 49.5769 6.07881L49.6325 6.02168C49.7091 5.94257 49.7816 5.86794 49.8566 5.81082C49.9839 5.71392 50.1317 5.66272 50.2834 5.66272C50.4583 5.66272 50.626 5.732 50.7555 5.85767C51.0013 6.09631 51.0362 6.47913 50.8388 6.7678C50.7669 6.87309 50.6693 6.97158 50.5658 7.07586L47.0659 10.6373C44.9896 12.7498 42.9132 14.8624 40.8383 16.9763C40.5825 17.2371 40.4014 17.3971 40.0585 17.4078Z" fill="#111111"/>
</g>
<defs>
<clipPath id="clip0_62_456">
<rect width="54" height="52" fill="white"/>
</clipPath>
</defs>
</svg>
