<svg width="60" height="52" viewBox="0 0 60 52" fill="none" xmlns="http://www.w3.org/2000/svg">
<g clip-path="url(#clip0_62_462)">
<path d="M30.1762 52C27.2454 52 24.2085 51.8369 21.1501 51.5152C18.3919 51.2249 15.9133 50.9077 13.5101 49.9598C11.4843 49.1612 11.4843 49.1612 11.4843 47.0252V41.1862C11.4843 40.5905 11.4838 39.9947 11.4832 39.3988C11.4816 37.6606 11.48 35.8632 11.4927 34.0956C11.496 33.6196 11.338 33.4183 10.8663 33.2985C5.10301 31.8325 0.992849 27.3308 0.139901 21.5504C-0.885945 14.5969 3.84082 7.59034 10.6768 5.93163C11.8345 5.65067 12.9917 5.50824 14.116 5.50824C15.5022 5.50824 16.8845 5.72485 18.2244 6.152C18.3699 6.19842 18.4798 6.2191 18.5803 6.2191C18.8201 6.2191 19.0023 6.10154 19.1893 5.82622C21.703 2.12359 25.6388 0 29.9876 0C34.3341 0 38.2776 2.12157 40.807 5.82087C40.9504 6.03054 41.1247 6.22459 41.4269 6.22459C41.5228 6.22459 41.629 6.20594 41.7608 6.16574C43.1305 5.74886 44.5374 5.53745 45.9419 5.53745C49.2718 5.53745 52.5053 6.73112 55.0469 8.89853C57.6383 11.1085 59.3446 14.2097 59.8514 17.6309C60.3539 21.0235 59.5719 24.4854 57.6493 27.3787C55.7242 30.2756 52.8275 32.3425 49.4923 33.1984C48.7378 33.392 48.4977 33.6999 48.5039 34.4654C48.5245 36.9098 48.5245 39.396 48.5247 41.8001C48.5247 43.8472 48.5248 45.964 48.5375 48.0459C48.5412 48.6764 48.3272 49.0457 47.7741 49.3629C46.1247 50.3093 44.2715 50.71 42.5142 51.0021C38.5304 51.6642 34.3793 52 30.1762 52ZM29.9494 46.4326C27.1665 46.4326 24.3502 46.5791 21.5788 46.8679C19.0012 47.1365 17.0527 47.47 15.261 47.9489C15.2311 47.9568 15.1997 47.9645 15.1674 47.9726C14.8956 48.0403 14.4847 48.1424 14.484 48.5303C14.4833 48.8619 14.8421 48.9394 15.0796 48.9907C15.1329 49.0022 15.1848 49.0133 15.2314 49.0264C16.6159 49.4172 18.1389 49.7061 20.0249 49.9358C23.4076 50.3477 26.7927 50.5565 30.086 50.5565C34.0069 50.5565 37.9249 50.2603 41.7309 49.6764C42.9992 49.4819 44.3489 49.2477 45.683 48.7174L45.8659 48.6448L45.742 48.4917C45.4389 48.1176 45.107 48.0352 44.8139 47.9625C44.777 47.9534 44.7405 47.9443 44.7043 47.9347C41.7474 47.1482 38.7625 46.8333 35.1904 46.6022C33.4496 46.4897 31.6865 46.4326 29.9494 46.4326ZM30.0307 44.9617C35.6286 44.9617 41.3058 45.626 46.9044 46.9358L47.0815 46.9772V42.5199C47.0814 37.7576 47.0812 32.9957 47.0826 28.2334C47.0828 27.6124 47.3409 27.2535 47.7908 27.2485C48.241 27.2485 48.5175 27.6205 48.5213 28.2194C48.5228 28.4376 48.5249 28.6559 48.5273 28.8741C48.5355 29.667 48.5438 30.4867 48.5111 31.2895C48.5006 31.5481 48.5172 31.745 48.6325 31.8655C48.7017 31.9379 48.7956 31.9731 48.9193 31.9731C49.0152 31.9731 49.1339 31.9521 49.3044 31.9054C55.3296 30.2486 59.1758 24.4508 58.4496 18.1195C57.7302 11.8465 52.2287 6.93255 45.9253 6.93255C44.8285 6.93255 43.732 7.0812 42.6666 7.37416C42.3664 7.45673 42.1622 7.54435 42.0722 7.72525C41.9945 7.88127 42.013 8.07171 42.1358 8.38246C43.1116 10.849 43.3036 13.4009 42.7063 15.9672C42.5869 16.4799 42.3543 16.74 42.015 16.74C41.9606 16.74 41.9027 16.7335 41.8422 16.7208C41.6301 16.6758 41.4771 16.5827 41.3873 16.444C41.2708 16.264 41.2493 15.9974 41.3233 15.6512C42.0242 12.371 41.4634 9.34737 39.6559 6.66475C37.3276 3.20867 34.1562 1.45641 30.2299 1.45641C29.7317 1.45641 29.2162 1.48591 28.6973 1.54404C24.228 2.04493 21.0342 4.50819 19.2049 8.86542C18.9006 9.59001 18.6491 9.68776 18.4432 9.68776C18.3525 9.68776 18.2527 9.66549 18.1379 9.61965C17.7418 9.46132 17.5431 9.18123 17.8613 8.32953L17.8749 8.29049C17.8822 8.26866 17.8897 8.2461 17.8965 8.23569C18.023 8.04583 18.06 7.88778 18.0099 7.75272C17.9408 7.56706 17.7259 7.48623 17.5464 7.43648C16.3859 7.11518 15.2217 6.95222 14.0859 6.95222C13.4821 6.95222 12.8723 6.9982 12.273 7.08872C6.25806 7.99825 1.91473 12.7758 1.46496 18.9769C1.04808 24.7243 4.84907 30.1323 10.5026 31.8363C10.8001 31.9259 10.9796 31.98 11.1185 31.98C11.4836 31.98 11.4838 31.6646 11.4842 31.0923C11.4843 30.7953 11.4833 30.4996 11.4823 30.2039C11.4797 29.4865 11.4771 28.7447 11.4926 28.0165C11.5026 27.5347 11.7611 27.2585 12.2016 27.2585L12.2175 27.2587C12.6684 27.2655 12.9174 27.5393 12.9186 28.0298L12.92 28.5646L12.9201 46.9725L13.0968 46.9316C18.7408 45.6247 24.4383 44.9617 30.0307 44.9617Z" fill="#111111"/>
<path d="M19.9194 24.2147C19.528 24.2147 19.2865 24.0454 19.2016 23.7117C19.1525 23.5188 19.1697 23.3512 19.2526 23.2135C19.3735 23.0131 19.6309 22.8646 20.0179 22.7722C23.0816 22.0401 26.3528 21.6596 30.0181 21.6089C33.6897 21.6627 36.9608 22.0436 40.0144 22.7731C40.3899 22.8629 40.6391 23.0075 40.7547 23.203C40.8395 23.3461 40.8536 23.5247 40.7968 23.7336C40.7094 24.0554 40.4816 24.2118 40.1003 24.2118C39.971 24.2118 39.8239 24.1935 39.6633 24.157C36.4601 23.4324 33.2121 23.0649 30.0094 23.0649C26.7946 23.0649 23.5352 23.4352 20.3213 24.1651C20.1761 24.1981 20.041 24.2147 19.9194 24.2147Z" fill="#111111"/>
</g>
<defs>
<clipPath id="clip0_62_462">
<rect width="60" height="52" fill="white"/>
</clipPath>
</defs>
</svg>
