<svg width="76" height="54" viewBox="0 0 76 54" fill="none" xmlns="http://www.w3.org/2000/svg">
<g clip-path="url(#clip0_62_487)">
<path d="M5.00596 54C4.49357 54 3.98118 53.9973 3.46879 53.9904C2.77961 53.9811 2.49564 53.6962 2.48861 53.0065C2.47581 51.736 2.46672 50.2351 2.49481 48.7366C2.49915 48.4923 2.47705 48.1842 2.26391 47.9657C2.12244 47.8209 1.92934 47.7474 1.69018 47.7474C1.62348 47.7474 1.55016 47.753 1.4723 47.7647C1.42604 47.7715 1.37585 47.7742 1.31431 47.7742C1.25193 47.7742 1.18936 47.7713 1.12678 47.7688L1.00493 47.764C0.295098 47.7431 0.0171142 47.4681 0.0109184 46.7828C-0.00291882 45.2849 -0.00291881 43.7157 0.0105054 42.1193C0.0164947 41.4058 0.300262 41.1352 1.05718 41.1198C2.29799 41.0949 2.48469 40.8999 2.4849 39.63L2.48407 36.9844C2.48304 34.986 2.482 32.9878 2.48614 30.9896C2.49151 28.3524 4.07763 26.519 6.62575 26.2048C7.54107 26.0921 7.46899 25.4074 7.44524 25.1823C7.43987 25.1312 7.43512 25.0913 7.43533 25.0527C7.44277 18.175 7.44215 11.2222 7.44008 4.73325C7.43946 3.07624 8.10427 1.75898 9.41612 0.818018C10.1943 0.259797 11.1125 0 12.3058 0C16.7848 0.0058148 21.254 0.00706083 25.7228 0.00706083L52.3527 0.0058148L63.5694 0.00643782C66.6962 0.00685316 68.5636 1.87465 68.5646 5.00302V5.2977C68.5667 11.7384 68.5687 18.3982 68.558 25.0095C68.5572 25.5833 68.6336 26.1081 69.5661 26.2297C71.8781 26.5313 73.5027 28.4082 73.5165 30.7942C73.5347 33.8681 73.5324 36.9568 73.5103 39.9747C73.5078 40.3167 73.5252 40.6438 73.7625 40.8839C73.9351 41.0589 74.1794 41.1404 74.5312 41.1404C74.5605 41.1404 74.5902 41.1397 74.6216 41.1385C74.7001 41.136 74.7757 41.1343 74.848 41.1343C75.7955 41.1343 75.9987 41.2558 75.9994 42.5428L76.0002 43.6137C76.001 44.6054 76.0018 45.5976 75.9983 46.5892C75.9948 47.5825 75.6984 47.7503 75.0353 47.7503C74.9752 47.7503 74.9124 47.7485 74.8471 47.7445C74.7759 47.7402 74.7088 47.7381 74.6462 47.7381C74.3909 47.7381 74.0219 47.7692 73.7668 48.04C73.4992 48.3239 73.483 48.7366 73.5025 49.1029C73.5572 50.1151 73.5425 51.1534 73.5285 52.1575C73.5246 52.4279 73.521 52.6981 73.5184 52.9681C73.5113 53.7059 73.2348 53.9832 72.4977 53.9907C72.0493 53.9952 71.601 53.9969 71.1528 53.9969C70.7941 53.9969 70.4353 53.9958 70.0768 53.9948L69.096 53.9929C68.5421 53.9923 68.2581 53.7566 68.1458 53.2044C68.0642 52.8022 67.9789 52.4005 67.8936 51.9989C67.6714 50.9503 67.4426 49.8713 67.2833 48.8063C67.1441 47.878 66.5946 47.753 66.0751 47.753C66.0382 47.753 66.0002 47.7537 65.9605 47.7545C65.5153 47.7659 65.0324 47.7711 64.4401 47.7711C64.0896 47.7711 63.7387 47.7692 63.3878 47.7674L63.2802 47.7669C62.964 47.7653 62.6479 47.7638 62.3317 47.7638L46.981 47.764C33.3571 47.764 21.88 47.762 10.1505 47.7522C9.52372 47.7522 8.8426 47.8427 8.69122 48.9239C8.54706 49.9516 8.32277 50.9935 8.10613 52.001C8.02538 52.376 7.94875 52.732 7.87544 53.0885C7.72529 53.817 7.52248 53.9857 6.78973 53.9913C6.19493 53.9963 5.60034 54 5.00596 54ZM70.4911 47.7233C70.2763 47.7233 70.0305 47.7364 69.7193 47.7526L69.6728 47.7551C69.5051 47.764 69.1931 47.7807 69.0074 48.0259C68.8412 48.2456 68.8748 48.5131 68.9149 48.695C69.1134 49.603 69.292 50.5244 69.4649 51.4153L69.5087 51.6411C69.5421 51.8136 69.6206 52.2173 70.139 52.3309C70.3949 52.3866 70.6045 52.4136 70.78 52.4136C71.179 52.4136 71.4735 52.2707 71.6557 51.9895C71.8038 51.7605 71.8697 51.45 71.8697 50.9823V50.0524C71.8697 49.1631 71.8697 48.6732 71.7137 48.3181C71.4529 47.7233 70.8273 47.7233 70.4911 47.7233ZM4.96941 52.3056C5.03054 52.3056 5.1179 52.3231 5.21042 52.3415C5.33578 52.3667 5.47519 52.3949 5.621 52.3949C6.06007 52.3949 6.36594 52.1307 6.4818 51.651C6.61955 51.081 6.7317 50.4995 6.84033 49.9371C6.9153 49.5481 6.99997 49.1083 7.09188 48.69C7.13153 48.5096 7.16499 48.2442 6.99873 48.0247C6.81431 47.7815 6.50927 47.7655 6.3269 47.7559L6.29985 47.7545C5.97106 47.7377 5.71166 47.7242 5.48675 47.7242C5.16148 47.7242 4.55615 47.7242 4.29448 48.267C4.13587 48.5962 4.13587 49.0321 4.13587 49.8231V49.9801C4.13587 50.1143 4.13483 50.2482 4.13359 50.3822C4.13091 50.7119 4.12802 51.0527 4.14227 51.3923C4.1433 51.4164 4.13979 51.4444 4.1369 51.4737C4.11914 51.6654 4.09415 51.9326 4.28312 52.1418C4.39402 52.2641 4.55491 52.3312 4.73686 52.3312C4.8015 52.3312 4.86842 52.3235 4.94111 52.3077C4.94256 52.3073 4.95144 52.3056 4.96941 52.3056ZM3.77713 42.7812C1.87668 42.7812 1.69721 42.9506 1.64433 44.797L1.64144 44.8969C1.63215 45.2178 1.65549 45.5798 1.89939 45.8325C2.14289 46.0846 2.49584 46.1193 2.84095 46.1193C10.6631 46.1045 18.3647 46.1025 25.5221 46.1025L72.3063 46.1033C74.1276 46.1033 74.3005 45.9417 74.361 44.1809L74.3649 44.0675C74.3771 43.7269 74.3544 43.3421 74.0948 43.0721C73.8354 42.8017 73.4554 42.7646 73.0836 42.7646C55.2844 42.7801 37.1227 42.7814 21.4967 42.7814L3.77713 42.7812ZM37.4252 27.8303C27.3616 27.8303 17.3011 27.8311 7.23768 27.8323C5.32959 27.8326 4.14206 29.0358 4.13855 30.9721C4.1369 31.9391 4.13834 32.9062 4.13979 33.8733C4.14289 35.8568 4.14619 37.9061 4.11976 39.9195C4.11542 40.259 4.14475 40.6073 4.38762 40.8548C4.63029 41.1019 4.97808 41.136 5.31782 41.136C12.5051 41.121 19.5617 41.119 26.1169 41.119L48.9015 41.1194C55.874 41.1194 63.3455 41.121 70.7412 41.132C71.0615 41.132 71.3938 41.1117 71.6315 40.8695C71.8153 40.6826 71.8918 40.4264 71.8864 40.0133C71.8618 38.0558 71.8643 36.074 71.8666 34.1576C71.868 33.0702 71.8695 31.9899 71.8661 30.9096C71.8606 29.0406 70.6503 27.8328 68.7833 27.8326C58.3317 27.8311 47.8769 27.8303 37.4252 27.8303ZM12.4122 1.6676C10.2412 1.66781 9.09353 2.81312 9.09332 4.97996C9.0925 9.21189 9.09291 23.8226 9.09291 23.8226C9.09291 24.7879 9.09291 25.3197 9.33269 25.6892C9.63256 26.1519 10.1896 26.1884 10.8866 26.1884C11.0431 26.1884 11.2174 26.1861 11.4112 26.1836L11.464 26.183C11.6741 26.1803 11.9766 26.1519 12.1846 25.9367C12.4136 25.7 12.4085 25.3638 12.4058 25.1833C12.3835 23.6991 12.382 22.2101 12.4015 20.7572C12.4353 18.2196 14.4161 16.2223 16.9114 16.21C19.4271 16.1978 21.9533 16.1915 24.4196 16.1915C26.9124 16.1915 29.4128 16.198 31.8517 16.2104C34.3199 16.2231 36.2937 18.1943 36.3453 20.698C36.3606 21.4321 36.3573 22.1816 36.354 22.9064C36.3525 23.2399 36.3511 23.5608 36.3511 23.8818C36.3515 25.6049 36.3515 26.1853 38.1596 26.1853C38.3091 26.1853 38.4744 26.1834 38.6576 26.1814L38.7042 26.1807C38.9543 26.1778 39.2381 26.1465 39.443 25.9349C39.6478 25.7228 39.6697 25.4308 39.6658 25.2005C39.6388 23.6629 39.6373 22.1484 39.6617 20.699C39.7032 18.2433 41.6827 16.2316 44.0745 16.215C46.5223 16.1978 49.0535 16.189 51.5987 16.189C54.0731 16.189 56.62 16.1973 59.1683 16.2135C61.6003 16.2291 63.5483 18.1908 63.6024 20.6795C63.62 21.4703 63.616 22.2773 63.6125 23.0582C63.6109 23.4102 63.6092 23.7533 63.6092 24.0963C63.6098 25.9604 63.7782 26.1357 65.6101 26.1818L65.8013 26.1855C66.0942 26.1855 66.4211 26.1535 66.6553 25.9166C66.8511 25.7189 66.9339 25.4418 66.9318 24.9904C66.9089 19.9747 66.9103 14.888 66.912 9.96886V9.91881C66.9126 8.27322 66.9132 6.62742 66.9128 4.98204C66.9124 2.81353 65.7654 1.66719 63.596 1.66698L25.2276 1.66719L12.4122 1.6676ZM24.4591 17.8604C21.9991 17.8604 19.54 17.8625 17.0801 17.8664C15.2813 17.8693 14.064 19.0939 14.051 20.914C14.0473 21.4263 14.05 21.9388 14.0524 22.4512C14.0568 23.2997 14.0611 24.1732 14.0355 25.0273C14.0258 25.3486 14.0483 25.6788 14.2775 25.9162C14.5084 26.1556 14.8453 26.1863 15.1129 26.1863L15.1509 26.1861C16.4384 26.1708 17.8042 26.1639 19.5805 26.1639C20.3761 26.1639 21.1714 26.1652 21.9667 26.1666L22.2707 26.167C22.9653 26.1683 23.66 26.1693 24.3544 26.1693L28.9795 26.1666C30.8164 26.1666 32.2288 26.171 33.5595 26.1801L33.6105 26.1803C33.9238 26.1803 34.2482 26.1598 34.4818 25.9139C34.6627 25.7236 34.7356 25.4599 34.7179 25.0595C34.679 24.1867 34.6861 23.292 34.6929 22.4269C34.697 21.9075 34.7009 21.3906 34.696 20.8737C34.6786 19.1068 33.449 17.8706 31.7057 17.8672C29.2901 17.8625 26.8742 17.8604 24.4591 17.8604ZM51.6088 17.861C49.1922 17.861 46.7765 17.8627 44.3599 17.8662C42.5157 17.8689 41.3178 19.0875 41.3085 20.9713C41.306 21.4473 41.3087 21.9239 41.3116 22.4003C41.3166 23.2941 41.3215 24.1985 41.2928 25.083C41.2842 25.349 41.3032 25.685 41.5297 25.9203C41.7526 26.1519 42.0714 26.1832 42.354 26.1832L42.3874 26.183C43.6968 26.171 45.1003 26.1658 46.9386 26.1658C47.3263 26.1658 51.2038 26.1695 51.5917 26.1695L56.1563 26.167C57.4554 26.167 59.1747 26.1685 60.9512 26.1803H60.9758C61.2391 26.1803 61.5365 26.151 61.7451 25.9351C61.9574 25.7158 61.9773 25.4094 61.9711 25.1669C61.9477 24.303 61.9512 23.4262 61.955 22.5783C61.9574 22.0175 61.9595 21.4566 61.9547 20.8955C61.9391 19.0861 60.7144 17.8685 58.9077 17.866C56.4748 17.8627 54.0413 17.861 51.6088 17.861Z" fill="#111111"/>
</g>
<defs>
<clipPath id="clip0_62_487">
<rect width="76" height="54" fill="white"/>
</clipPath>
</defs>
</svg>
