<svg width="59" height="59" viewBox="0 0 59 59" fill="none" xmlns="http://www.w3.org/2000/svg">
<g clip-path="url(#clip0_62_466)">
<path d="M19.1087 59.0001C18.138 58.5496 17.7287 57.7761 17.7825 56.4971C17.8246 55.4945 17.816 54.475 17.8076 53.489C17.8024 52.8808 17.7971 52.2523 17.8038 51.6351C17.8169 50.4097 17.2728 49.5904 16.1401 49.1298C14.6303 48.5159 13.1014 47.8757 11.6229 47.2562C10.4888 46.7814 9.31623 46.2901 8.15971 45.814C6.74886 45.2334 5.70863 44.3114 4.97972 42.9949C3.54431 40.4033 2.03786 37.7098 0.501917 34.9898C0.44725 34.8929 0.403083 34.7885 0.356446 34.678C0.267186 34.4669 0.175147 34.2494 0.000488281 34.0681V32.7255C0.113839 32.6482 0.145033 32.5228 0.165572 32.4408C0.172058 32.4147 0.177618 32.389 0.187656 32.3664C0.657118 31.2996 1.62955 30.637 2.72553 30.637C3.57983 30.637 4.36139 31.0328 4.92645 31.7515C5.8141 32.8805 6.69774 34.0437 7.55235 35.1687C7.95417 35.6976 8.35584 36.2265 8.75952 36.7539C8.83148 36.8479 8.90638 36.9398 8.98174 37.032L9.14867 37.238L9.24874 37.2071C9.48301 37.1348 9.52533 36.946 9.5505 36.8331C9.5576 36.8008 9.5644 36.7706 9.57304 36.7522C10.0692 35.68 11.0574 35.0138 12.1518 35.0138C12.3532 35.0138 12.5575 35.0365 12.7591 35.0814C15.1501 35.6136 17.5754 36.184 19.9205 36.7355C20.7947 36.941 21.6688 37.1466 22.5432 37.3506C22.7127 37.3903 22.8825 37.4292 23.0522 37.4681C23.6033 37.5943 24.1733 37.7249 24.7256 37.8772C26.8011 38.4493 28.2444 40.233 28.3169 42.3155C28.3732 43.9254 28.3661 45.5662 28.3593 47.1528C28.3566 47.7764 28.3539 48.4001 28.3549 49.0237C28.3562 49.8622 28.3535 50.7006 28.3509 51.5392C28.3455 53.2386 28.3401 54.996 28.3688 56.7246C28.3889 57.9276 27.9435 58.6304 26.9252 58.9998H19.1087V59.0001ZM2.74777 32.3184C2.62515 32.3184 2.4976 32.3402 2.36911 32.3829C1.94521 32.5241 1.6904 32.8822 1.67001 33.3656C1.65843 33.6412 1.78676 33.8642 1.89996 34.0608L1.9466 34.1423C2.53867 35.2008 3.13168 36.2586 3.72468 37.3166C4.65651 38.979 5.58833 40.6411 6.5166 42.3056C7.01432 43.1979 7.73535 43.8304 8.72106 44.239C11.4013 45.35 14.1244 46.4836 16.8142 47.6085C18.5978 48.3544 19.4668 49.6598 19.4707 51.5989L19.4725 52.383C19.4761 53.7765 19.4798 55.2175 19.4629 56.6339C19.4603 56.852 19.4694 57.059 19.6064 57.1977C19.7096 57.3021 19.8626 57.3488 20.1026 57.3488L20.1352 57.3484C21.0596 57.3333 22.0038 57.3259 23.0216 57.3259C23.9641 57.3259 24.9501 57.3322 26.0362 57.3454L26.0606 57.3455C26.2189 57.3455 26.417 57.329 26.5458 57.1991C26.6677 57.0762 26.6914 56.8998 26.6897 56.6725C26.6761 54.9298 26.6777 53.1576 26.6792 51.4437C26.6797 50.8325 26.6803 50.2213 26.6802 49.61C26.6802 48.9306 26.6811 48.2508 26.682 47.5713C26.684 46 26.6862 44.3752 26.6766 42.7769C26.6667 41.1172 25.6929 39.8134 24.1957 39.455C21.4373 38.7951 18.6283 38.1436 15.9117 37.5135C14.8111 37.2582 13.7103 37.0028 12.61 36.7463L12.5927 36.7423C12.4619 36.7117 12.3267 36.6802 12.1821 36.6802C12.0834 36.6802 11.9919 36.6947 11.902 36.7245C11.3252 36.9162 11.0281 37.3089 11.019 37.8917C11.0092 38.5261 11.3846 38.9427 12.1349 39.1298L14.9079 39.8202C17.1212 40.3712 19.3345 40.9222 21.5471 41.476C21.9329 41.5727 22.5561 41.8404 22.3966 42.5502C22.3091 42.9395 22.0002 43.1628 21.549 43.1628C21.4228 43.1628 21.2878 43.145 21.1478 43.11C17.4293 42.182 13.6861 41.2406 10.1708 40.3558C9.54015 40.197 9.01386 39.8454 8.60679 39.3107C8.04405 38.5715 7.47899 37.8341 6.91379 37.0969L5.79789 35.6397C5.07022 34.6887 4.34255 33.7377 3.61674 32.7852C3.38432 32.4798 3.08365 32.3184 2.74777 32.3184Z" fill="#111111"/>
<path d="M31.966 59C31.0141 58.5648 30.6134 57.8139 30.6268 56.4969C30.6591 53.3345 30.654 50.1195 30.649 47.0102C30.6469 45.7162 30.6449 44.4221 30.6453 43.1282C30.6464 40.1727 32.0485 38.4031 34.9319 37.7181C38.8192 36.7946 42.4205 35.9451 45.9415 35.1215C46.2404 35.0517 46.5329 35.0162 46.8112 35.0162C48.0917 35.0162 49.0679 35.7528 49.5599 37.0902L49.5935 37.1818L49.6905 37.1909C49.7063 37.1923 49.7212 37.193 49.7358 37.193C49.9734 37.193 50.0755 37.019 50.1431 36.9038C50.1598 36.8751 50.176 36.8466 50.1947 36.8224L50.9103 35.8952C51.9039 34.6085 52.9312 33.278 53.9194 31.952C54.5532 31.1019 55.3306 30.6709 56.2304 30.6709C56.4068 30.6709 56.5907 30.6873 56.7774 30.7197C57.899 30.9146 58.6188 31.5897 58.9167 32.7267C58.9312 32.7813 58.966 32.8153 59.0004 32.8378V33.98C57.9535 35.9839 56.8234 37.9854 55.7305 39.9215C55.1403 40.967 54.5302 42.0478 53.9398 43.1168C53.2753 44.3201 52.292 45.2011 51.0172 45.7352L49.3528 46.4334C47.2141 47.3311 45.0025 48.2594 42.8191 49.1512C41.7242 49.5983 41.1943 50.3882 41.1996 51.5658C41.2022 52.1635 41.1983 52.7611 41.1946 53.3588C41.1878 54.4608 41.1806 55.6004 41.2147 56.7213C41.2504 57.8988 40.7953 58.6237 39.7825 59.0002H31.966V59ZM46.7704 36.697C46.6571 36.697 46.5408 36.7106 46.4248 36.7375C42.4172 37.6654 38.7185 38.5305 35.1173 39.3828C33.2661 39.8208 32.3252 41.0108 32.321 42.9202C32.3176 44.4533 32.3182 45.9863 32.319 47.5195L32.3206 51.341C32.322 53.0989 32.3235 54.9166 32.3115 56.7041C32.3102 56.8896 32.3263 57.0785 32.4506 57.2036C32.5749 57.3286 32.7649 57.3449 32.9165 57.3449L32.9374 57.3447C33.8845 57.3345 34.8759 57.3293 35.884 57.3293C36.8456 57.3293 37.8602 57.3339 38.8998 57.3433L38.9211 57.3435C39.0973 57.3435 39.2773 57.3263 39.4002 57.2017C39.5257 57.0746 39.5406 56.8847 39.5385 56.7159C39.5188 55.1038 39.5009 53.23 39.5368 51.3926C39.5716 49.618 40.4041 48.3747 42.0114 47.6971C44.9902 46.4411 47.9852 45.1937 50.2616 44.2473C50.8847 43.9882 51.6582 43.5955 52.1116 42.8519C53.5625 40.4739 54.9207 37.9911 56.2343 35.5905C56.5624 34.9906 56.8906 34.3908 57.2206 33.7921C57.4836 33.3146 57.3326 32.8144 56.8262 32.4868C56.6447 32.3695 56.4562 32.3098 56.2653 32.3098C56.008 32.3098 55.7528 32.4212 55.5271 32.6317C55.4266 32.7257 55.3452 32.8338 55.2665 32.9382L55.2155 33.0057L54.2542 34.2606C52.9789 35.925 51.7036 37.5896 50.4333 39.2576C49.9997 39.827 49.5122 40.174 48.9431 40.3187C45.4396 41.2088 41.7739 42.1266 37.7367 43.1248C37.6212 43.1534 37.5089 43.1677 37.4028 43.1677C36.986 43.1677 36.6832 42.9424 36.5928 42.5651C36.4657 42.0334 36.738 41.6525 37.3597 41.4923C37.8979 41.3536 38.4376 41.2207 38.9775 41.0877C39.2416 41.0227 39.5057 40.9575 39.7696 40.8919L41.7076 40.409C43.4156 39.9834 45.1236 39.5578 46.8322 39.1351C47.2802 39.0242 47.762 38.8329 47.9365 38.2541C48.053 37.869 47.9921 37.4766 47.77 37.1773C47.5432 36.8721 47.179 36.697 46.7704 36.697Z" fill="#111111"/>
<path d="M29.5487 35.263C26.3833 35.263 23.3614 34.1088 21.0394 32.013C18.6878 29.8904 17.2147 26.9331 16.8915 23.6861C16.5187 19.9409 17.5316 16.4224 19.9879 12.9298C20.8609 11.6885 21.859 10.5115 22.8243 9.37319C23.5385 8.53109 24.2769 7.66027 24.9615 6.76752C26.5207 4.73416 27.533 2.91654 28.1473 1.04764C28.3189 0.52552 28.7104 0.224076 29.0796 0H29.8175C30.3484 0.219906 30.6898 0.621266 30.9224 1.29689C31.8673 4.04247 33.5909 6.32122 35.3126 8.37465C35.5911 8.70652 35.8718 9.03653 36.1527 9.36639C37.4096 10.8424 38.7093 12.3688 39.7361 14.0567C41.8556 17.5404 42.6112 21.2117 41.9821 24.9681C41.1494 29.9395 37.0694 34.0748 32.0599 35.0247C31.2263 35.1827 30.3813 35.263 29.5487 35.263ZM29.3437 2.61555C28.0658 5.46476 26.301 8.07584 23.7896 10.8327C22.9372 11.7684 22.1201 12.7921 21.361 13.8755C18.8631 17.4404 17.9947 20.9176 18.7065 24.5058C19.7708 29.8719 24.2023 33.6195 29.4833 33.6195C31.0124 33.6197 32.5173 33.3036 33.9563 32.6805C38.883 30.5466 41.4152 25.3677 40.2571 19.7934C39.7662 17.4313 38.6559 15.1587 36.862 12.8457C36.2417 12.0456 35.5681 11.2716 34.9167 10.5231C34.3976 9.92666 33.8609 9.30987 33.3562 8.68567C31.9067 6.89307 30.6861 4.90696 29.6249 2.61401L29.4825 2.30639L29.3437 2.61555Z" fill="#111111"/>
<path d="M27.5627 30.3324C27.4378 30.3324 27.3111 30.3083 27.1862 30.2607C25.8683 29.7596 24.7184 28.9945 23.7686 27.9867C22.9397 27.1076 22.2979 26.1209 21.8611 25.0542C21.7176 24.7038 21.5747 24.0741 22.2308 23.7948C22.3487 23.7446 22.4647 23.7191 22.5757 23.7191C22.9039 23.7191 23.1847 23.9452 23.3664 24.3555C24.2998 26.463 25.7959 27.9319 27.8132 28.7218C28.1821 28.8664 28.3914 29.1402 28.4023 29.4932C28.4093 29.718 28.3313 29.9265 28.1823 30.0802C28.0244 30.2428 27.8044 30.3324 27.5627 30.3324Z" fill="#111111"/>
</g>
<defs>
<clipPath id="clip0_62_466">
<rect width="59" height="59" fill="white"/>
</clipPath>
</defs>
</svg>
