<svg width="126" height="27" viewBox="0 0 126 27" fill="none" xmlns="http://www.w3.org/2000/svg">
<g clip-path="url(#clip0_62_565)">
<path d="M125.291 18.0419C124.901 18.0419 124.583 18.3617 124.583 18.7554C124.583 19.1491 124.901 19.4689 125.291 19.4689C125.682 19.4689 126 19.1491 126 18.7554C126 18.3617 125.682 18.0419 125.291 18.0419ZM125.291 19.3557C124.962 19.3557 124.695 19.0857 124.695 18.7554C124.695 18.4235 124.963 18.1551 125.291 18.1551C125.621 18.1551 125.889 18.4251 125.889 18.7554C125.889 19.0857 125.621 19.3557 125.291 19.3557ZM125.522 18.6332C125.522 18.5035 125.431 18.4265 125.296 18.4265H125.07V19.0767H125.18V18.8414H125.302L125.419 19.0767H125.538L125.41 18.8173C125.479 18.7856 125.522 18.7222 125.522 18.6332ZM125.291 18.7403H125.182V18.5246H125.291C125.366 18.5246 125.411 18.5623 125.411 18.6317C125.411 18.7026 125.365 18.7403 125.291 18.7403ZM39.9512 10.8213V9.0957H37.3248V19.3617H39.9512V13.2061C39.9512 12.0914 40.661 11.5438 41.7675 11.5438H43.205V9.09574H41.9771C41.0158 9.0957 40.1803 9.601 39.9512 10.8213ZM45.6652 5.03516C44.7668 5.03516 44.078 5.75014 44.078 6.65517C44.078 7.53908 44.7668 8.25406 45.6652 8.25406C46.5636 8.25406 47.2524 7.53908 47.2524 6.65517C47.2524 5.7501 46.5636 5.03516 45.6652 5.03516ZM44.355 19.3618H46.9754V9.0957H44.355V19.3618ZM59.4576 14.2287C59.4576 17.1595 57.0992 19.5352 54.1898 19.5352C53.0158 19.5352 51.9512 19.1476 51.0976 18.4929V22.3755H48.4772V9.0957H51.0976V9.96451C51.9512 9.30988 53.0158 8.92223 54.1898 8.92223C57.0992 8.92223 59.4576 11.2979 59.4576 14.2287ZM56.8207 14.2287C56.8207 12.6374 55.5389 11.3462 53.9592 11.3462C52.3794 11.3462 51.0977 12.6374 51.0977 14.2287C51.0977 15.8201 52.3795 17.1112 53.9592 17.1112C55.5389 17.1112 56.8207 15.8216 56.8207 14.2287ZM105.002 13.3282L103.473 12.9059C102.467 12.6419 102.076 12.3312 102.076 11.7957C102.076 11.2738 102.627 10.9088 103.415 10.9088C104.165 10.9088 104.753 11.4035 104.753 12.037V12.0958H107.169V12.037C107.169 10.1742 105.661 8.92219 103.415 8.92219C101.191 8.92219 99.5754 10.1726 99.5754 11.8967C99.5754 13.2377 100.457 14.2483 101.997 14.6676L103.461 15.0704C104.574 15.3811 104.987 15.725 104.987 16.342C104.987 16.9921 104.389 17.4295 103.5 17.4295C102.573 17.4295 101.949 16.8382 101.949 15.9603V15.9015H99.3852V15.9603C99.3852 18.066 101.068 19.5382 103.479 19.5382C105.801 19.5382 107.488 18.1007 107.488 16.1217C107.488 15.1503 107.056 13.8803 105.002 13.3282ZM68.7533 9.0957H71.3737V19.3617H68.7533V18.4929C67.8998 19.1475 66.8351 19.5352 65.6612 19.5352C62.7519 19.5352 60.3935 17.1595 60.3935 14.2287C60.3935 11.2979 62.7519 8.92219 65.6612 8.92219C66.8351 8.92219 67.8998 9.30985 68.7533 9.96447V9.0957ZM68.7533 14.2287C68.7533 12.6359 67.4715 11.3462 65.8918 11.3462C64.312 11.3462 63.0303 12.6374 63.0303 14.2287C63.0303 15.8201 64.312 17.1112 65.8918 17.1112C67.473 17.1112 68.7533 15.8216 68.7533 14.2287ZM80.8357 5.44241H83.4561V19.3632H80.8357V18.4944C79.9821 19.1491 78.9175 19.5367 77.7436 19.5367C74.8342 19.5367 72.4758 17.161 72.4758 14.2302C72.4758 11.2994 74.8341 8.92371 77.7436 8.92371C78.9175 8.92371 79.9821 9.31136 80.8357 9.96599V5.44241ZM80.8357 14.2287C80.8357 12.6374 79.5539 11.3462 77.9741 11.3462C76.3945 11.3462 75.1127 12.6374 75.1127 14.2287C75.1127 15.8201 76.3929 17.1112 77.9741 17.1112C79.5539 17.1112 80.8357 15.8216 80.8357 14.2287ZM95.6223 19.3618H98.2427V9.0957H95.6223V19.3618ZM96.9325 5.03516C96.0341 5.03516 95.3453 5.75014 95.3453 6.65517C95.3453 7.53908 96.0341 8.25406 96.9325 8.25406C97.8309 8.25406 98.5197 7.53908 98.5197 6.65517C98.5197 5.7501 97.8309 5.03516 96.9325 5.03516ZM118.814 14.2287C118.814 17.1595 116.455 19.5352 113.546 19.5352C110.637 19.5352 108.278 17.1595 108.278 14.2287C108.278 11.2979 110.636 8.92223 113.546 8.92223C116.455 8.92223 118.814 11.2979 118.814 14.2287ZM116.407 14.2287C116.407 12.6374 115.126 11.3462 113.546 11.3462C111.966 11.3462 110.684 12.6374 110.684 14.2287C110.684 15.8201 111.965 17.1112 113.546 17.1112C115.126 17.1112 116.407 15.8216 116.407 14.2287ZM38.6095 5.44241H28.5576V7.79701H32.2786V19.3617H34.8901V7.79701H38.6111V5.44241H38.6095ZM89.4441 16.5501L87.1127 9.09574H84.3605L87.8569 19.3618H91.0103L94.5277 9.09574H91.7754L89.4441 16.5501ZM122.653 10.8213V9.0957H120.027V19.3617H122.653V13.2061C122.653 12.0914 123.363 11.5438 124.469 11.5438H125.907V9.09574H124.679C123.718 9.0957 122.884 9.601 122.653 10.8213Z" fill="black"/>
<path d="M13.4015 27C20.803 27 26.8031 20.9558 26.8031 13.5C26.8031 6.04416 20.803 0 13.4015 0C6.00007 0 0 6.04416 0 13.5C0 20.9558 6.00007 27 13.4015 27Z" fill="#34E0A1"/>
<path d="M21.679 10.8664L23.2961 9.09403H19.7099C17.9146 7.85865 15.7463 7.13916 13.4015 7.13916C11.0595 7.13916 8.89735 7.8602 7.10497 9.09403H3.50977L5.12694 10.8664C4.13569 11.7774 3.51427 13.0898 3.51427 14.5469C3.51427 17.2966 5.72743 19.526 8.45715 19.526C9.75388 19.526 10.9353 19.0222 11.8173 18.1986L13.4015 19.9363L14.9857 18.2001C15.8677 19.0237 17.0476 19.526 18.3443 19.526C21.0741 19.526 23.2902 17.2966 23.2902 14.5469C23.2916 13.0882 22.6703 11.776 21.679 10.8664ZM8.45861 17.9166C6.61083 17.9166 5.11349 16.4082 5.11349 14.5469C5.11349 12.6855 6.61086 11.1771 8.45861 11.1771C10.3064 11.1771 11.8037 12.6855 11.8037 14.5469C11.8037 16.4082 10.3064 17.9166 8.45861 17.9166ZM13.403 14.4488C13.403 12.2315 11.8023 10.3279 9.68946 9.51487C10.8319 9.03367 12.0853 8.7667 13.4015 8.7667C14.7176 8.7667 15.9724 9.03367 17.1149 9.51487C15.0037 10.3294 13.403 12.2315 13.403 14.4488ZM18.3458 17.9166C16.498 17.9166 15.0007 16.4082 15.0007 14.5469C15.0007 12.6855 16.498 11.1771 18.3458 11.1771C20.1936 11.1771 21.691 12.6855 21.691 14.5469C21.691 16.4082 20.1936 17.9166 18.3458 17.9166ZM18.3458 12.779C17.377 12.779 16.5924 13.5694 16.5924 14.5453C16.5924 15.5212 17.377 16.3116 18.3458 16.3116C19.3146 16.3116 20.0993 15.5212 20.0993 14.5453C20.0992 13.5709 19.3146 12.779 18.3458 12.779ZM10.212 14.5469C10.212 15.5228 9.4274 16.3132 8.45861 16.3132C7.48983 16.3132 6.70519 15.5228 6.70519 14.5469C6.70519 13.5709 7.48983 12.7805 8.45861 12.7805C9.4274 12.779 10.212 13.5709 10.212 14.5469Z" fill="black"/>
</g>
<defs>
<clipPath id="clip0_62_565">
<rect width="126" height="27" fill="white"/>
</clipPath>
</defs>
</svg>
